<?xml version="1.0" encoding="UTF-8" standalone="no"?>
<!-- Created with Inkscape (http://www.inkscape.org/) -->

<svg
   xmlns:dc="http://purl.org/dc/elements/1.1/"
   xmlns:cc="http://creativecommons.org/ns#"
   xmlns:rdf="http://www.w3.org/1999/02/22-rdf-syntax-ns#"
   xmlns:svg="http://www.w3.org/2000/svg"
   xmlns="http://www.w3.org/2000/svg"
   xmlns:xlink="http://www.w3.org/1999/xlink"
   xmlns:sodipodi="http://sodipodi.sourceforge.net/DTD/sodipodi-0.dtd"
   xmlns:inkscape="http://www.inkscape.org/namespaces/inkscape"
   width="120"
   height="120"
   id="svg2"
   version="1.1"
   inkscape:version="0.48.4 r9939"
   sodipodi:docname="New document 1">
  <defs
     id="defs4">
    <linearGradient
       id="linearGradient4108">
      <stop
         style="stop-color:#f2dd2e;stop-opacity:1"
         offset="0"
         id="stop4110" />
      <stop
         style="stop-color:#f35e33;stop-opacity:1"
         offset="1"
         id="stop4112" />
    </linearGradient>
    <filter
       inkscape:collect="always"
       id="filter4060"
       x="-0.18233271"
       width="1.3646654"
       y="-0.10800174"
       height="1.2160035">
      <feGaussianBlur
         inkscape:collect="always"
         stdDeviation="3.1725481"
         id="feGaussianBlur4062" />
    </filter>
    <radialGradient
       inkscape:collect="always"
       xlink:href="#linearGradient4108"
       id="radialGradient4188"
       gradientUnits="userSpaceOnUse"
       gradientTransform="matrix(0.63155447,-0.19162241,0.57472516,1.8941952,-549.66749,-846.75792)"
       cx="-35.276363"
       cy="939.88074"
       fx="-35.276363"
       fy="939.88074"
       r="21.02313" />
  </defs>
  <sodipodi:namedview
     id="base"
     pagecolor="#ffffff"
     bordercolor="#666666"
     borderopacity="1.0"
     inkscape:pageopacity="0.0"
     inkscape:pageshadow="2"
     inkscape:zoom="2.8"
     inkscape:cx="-6.3829684"
     inkscape:cy="37.570156"
     inkscape:document-units="px"
     inkscape:current-layer="layer1"
     showgrid="false"
     showguides="true"
     inkscape:guide-bbox="true"
     inkscape:window-width="1680"
     inkscape:window-height="987"
     inkscape:window-x="-8"
     inkscape:window-y="-8"
     inkscape:window-maximized="1" />
  <metadata
     id="metadata7">
    <rdf:RDF>
      <cc:Work
         rdf:about="">
        <dc:format>image/svg+xml</dc:format>
        <dc:type
           rdf:resource="http://purl.org/dc/dcmitype/StillImage" />
        <dc:title></dc:title>
      </cc:Work>
    </rdf:RDF>
  </metadata>
  <g
     inkscape:label="Layer 1"
     inkscape:groupmode="layer"
     id="layer1"
     transform="translate(0,-932.36218)">
    <g
       id="g4169"
       transform="matrix(1.7960051,0,0,1.6712244,146.13046,-578.77634)">
      <path
         transform="matrix(1.0235013,0,0,1.0427014,-23.050704,-44.779293)"
         inkscape:connector-curvature="0"
         id="path3188"
         d="m -20.71345,917.40258 c 1.10253,0.0918 1.27107,0.10876 2.15501,0.21786 2.69308,0.33226 6.25019,1.29334 8.13892,2.19901 2.7289496,1.30858 5.2326792,3.79539 6.2195792,6.17755 0.4863,1.1738 0.55434,2.07779 0.27413,3.64231 -0.35268,1.96922 -0.61736,2.73249 -1.46019,4.21091 -0.8466496,1.48506 -0.9663496,1.81085 -0.9195196,2.50191 0.0458,0.67576 0.32112,1.09352 0.9070196,1.3762 0.21139,0.10202 0.38449,0.1267 0.9482,0.13163 0.77508,0 0.89431,0.0461 1.53177,0.49296 1.0527702,0.73878 1.6036202,1.88348 1.5230602,3.16474 -0.0744,1.1827 -0.54354,2.44653 -1.7042202,4.5903 -0.78276,1.44597 -1.1187,2.23543 -1.28226,3.01369 -0.41178,1.95933 0.032,3.40151 2.0908002,6.7948 0.37794,0.62294 0.52582,0.96748 0.4152,0.96748 -0.0891,0 -0.28996,-0.22755 -0.52637,-0.59645 -0.12394,-0.19333 -0.33404,-0.45561 -0.4668802,-0.58263 -0.25245,-0.24171 -0.90259,-0.70817 -0.98689,-0.70817 -0.0724,0 -1.424,-0.80921 -2.1170796,-1.26761 -1.7656,-1.16757 -2.58148,-2.06299 -2.95068,-3.23812 -0.0788,-0.25093 -0.20926,-0.88078 -0.28993,-1.39974 -0.18055,-1.16164 -0.24834,-1.40532 -0.51267,-1.84299 -0.22285,-0.36907 -0.5470596,-0.65684 -0.9494096,-0.84261 -0.66061,-0.30489 -1.30085,0.0263 -1.66345,0.85922 -0.0675,0.15467 -0.0918,0.38667 -0.0894,0.85231 0.004,0.74619 0.12513,1.28555 0.4997,2.2221 0.6772,1.69327 1.59228,2.83566 3.5435596,4.42346 0.52079,0.42369 1.10676,0.92438 1.30216,1.11245 1.17017,1.12627 1.6627796,2.61254 1.2862796,3.88081 -0.1775396,0.59826 -0.4217096,0.93524 -1.4881596,2.05443 -0.76017,0.79768 -1.01946,1.11311 -1.23595,1.50323 -0.95128,1.71449 -1.41711,3.86501 -1.24711,5.75737 0.077,0.85758 0.2363,1.68866 0.60207,3.14187 0.52628,2.09096 0.63877,3.18415 0.58085,5.64467 -0.0221,0.93754 -0.0635,1.97298 -0.0921,2.30091 -0.10721,1.23042 -0.49706,2.69514 -1.23578,4.64262 -0.2406696,0.63447 -0.5246696,1.42935 -0.6311196,1.76633 -0.3004,0.95103 -0.48109,1.34379 -0.56816,1.23503 -0.0215,-0.0263 0.14278,-0.71427 0.33246,-1.39118 0.23515,-0.83915 0.28548,-1.28077 0.24924,-2.18721 -0.0981,-2.45278 -1.14822,-4.79384 -3.93115,-8.76334 -0.96273,-1.37324 -1.12267,-1.68833 -1.15567,-2.27656 -0.0325,-0.57884 0.14925,-1.15424 0.93696,-2.96712 0.93237,-2.14592 1.14317,-2.70733 1.48583,-3.95733 0.26983,-0.98427 0.4289,-1.98121 0.51145,-3.20554 0.15363,-2.27821 -0.32407,-4.38447 -1.22607,-5.40592 -0.67192,-0.76099 -1.34049,-0.95219 -2.00925,-0.57457 -0.77143,0.43553 -1.08661,0.91615 -1.08761,1.65838 -7.6e-4,0.56503 0.10804,0.97374 0.60185,2.26143 0.23114,0.6027 0.49931,1.36484 0.59594,1.69343 0.33061,1.12479 0.38133,2.14937 0.13547,2.73677 -0.15532,0.3712 -1.24004,1.74033 -2.39858,3.02768 -1.37791,1.5312 -1.69366,1.96706 -1.69366,2.33793 0,0.0823 0.0761,0.48078 0.16902,0.88407 0.25514,1.10701 0.30961,1.77981 0.27613,3.41122 -0.043,2.09523 -0.28464,4.12548 -0.56956,4.78511 l -0.13018,0.30127 -0.0201,-0.23331 c -0.0111,-0.12834 0.008,-0.37268 0.0426,-0.54315 0.0345,-0.17046 0.0785,-0.68201 0.0978,-1.13663 0.0341,-0.80278 0.0297,-0.84672 -0.15115,-1.52659 -0.28258,-1.06243 -0.5427,-1.7581 -1.06988,-2.86149 -0.71663,-1.49977 -0.75331,-1.73309 -0.51259,-3.26034 0.16587,-1.05223 0.18632,-1.95637 0.0564,-2.49523 -0.19303,-0.80114 -0.70894,-1.59652 -1.28865,-1.98681 -0.22457,-0.15137 -0.31009,-0.1721 -0.70682,-0.1721 -0.52166,0 -0.70027,0.0757 -1.06712,0.44804 -0.31422,0.31953 -0.59777,0.81167 -0.75695,1.31384 -0.22155,0.69896 -0.28574,1.52215 -0.28746,3.68698 -0.003,3.33372 -0.0254,3.42241 -1.11229,4.33724 -0.82002,0.69024 -2.53361,2.47977 -2.95885,3.09021 -0.3687,0.52915 -0.84387,1.52412 -0.95953,2.00902 -0.0479,0.2009 -0.10326,0.56403 -0.12299,0.80673 -0.0197,0.24286 -0.0548,0.44146 -0.0779,0.44146 -0.091,0 -0.34711,-0.92422 -0.45564,-1.64391 -0.0379,-0.25109 -0.10326,-0.62097 -0.14532,-0.82187 -0.0827,-0.39522 -0.0657,-1.69393 0.028,-2.13078 0.16054,-0.74881 0.24898,-1.1131 0.35209,-1.45041 0.1943,-0.63561 0.28373,-1.30561 0.31835,-2.38515 0.0488,-1.52199 -0.11318,-2.68873 -0.58321,-4.20084 -0.39947,-1.28488 -1.22516,-3.11554 -1.60634,-3.56144 -0.16071,-0.18807 -1.03807,-1.53828 -1.25568,-1.93251 -0.21479,-0.3893 -0.192,-0.52998 0.26415,-1.63173 0.69201,-1.67122 0.90135,-2.56615 0.90135,-3.85366 0,-1.22269 -0.18671,-1.97151 -0.69062,-2.76969 -0.58183,-0.92158 -1.42467,-1.44185 -2.35513,-1.45402 -0.75965,-0.0165 -1.32114,0.37745 -1.50171,1.0356 -0.17816,0.64944 -0.0312,2.28923 0.29531,3.29588 0.28212,0.86959 0.35732,1.31285 0.35698,2.10478 -4.6e-4,1.01981 -0.1781,1.76616 -0.68845,2.89177 -0.12456,0.27478 -0.15565,0.30999 -0.17325,0.19563 -0.0118,-0.0773 0.0307,-0.37794 0.0945,-0.66967 0.18661,-0.85346 0.27077,-2.15381 0.18518,-2.861 -0.14958,-1.23601 -0.51019,-2.06167 -1.82716,-4.18373 -1.3471,-2.17043 -1.75963,-3.209 -1.76543,-4.44435 -0.002,-0.48391 0.0245,-0.6932 0.13069,-1.02064 0.22871,-0.70554 1.04891,-1.80318 2.89874,-3.87966 0.3727,-0.41825 0.69135,-0.81858 0.70812,-0.88933 0.0521,-0.21999 -0.75858,-1.88117 -1.88676,-3.866 -2.11287,-3.71726 -3.02428,-5.96223 -3.54437,-8.73038 -0.2453,-1.30561 -0.313,-2.16549 -0.27739,-3.52328 0.053,-2.01959 0.42291,-3.70798 1.14873,-5.24272 0.76063,-1.60832 2.07868,-3.12438 3.64951,-4.19776 0.96427,-0.65893 3.02175,-1.59328 4.09805,-1.86105 0.29757,-0.074 0.67033,-0.1739 0.82837,-0.22195 1.25049,-0.38018 3.01735,-0.60223 6.40757,-0.80525 1.48841,-0.0892 5.10263,-0.0757 6.29263,0.0234 z"
         style="fill:#3b2e2e;fill-opacity:1;filter:url(#filter4060)" />
      <g
         transform="translate(-24.36993,-1.0101525)"
         id="g4150">
        <path
           style="fill:#c3c3c3;fill-opacity:1;stroke:#000000;stroke-width:0.40000001;stroke-miterlimit:4;stroke-opacity:1;stroke-dasharray:none"
           d="m -25.967314,906.71674 c -0.604936,0.0283 -1.396478,0.0676 -2.959549,0.14668 -1.269095,0.0642 -3.299763,0.10936 -4.919511,0.10936 l -1.577041,0 -0.534495,0.32376 c -0.293973,0.17807 -0.81205,0.44864 -1.151284,0.60127 -0.425115,0.28784 -0.566086,1.27069 -0.90067,0.66038 0.364838,-0.12209 0.380563,-0.12383 1.063139,-0.11744 0.381053,0.004 1.093656,0.0247 1.583562,0.047 0.489906,0.0223 1.29157,0.0577 1.781476,0.0788 2.97267,0.12781 5.871671,0.35401 7.528172,0.5874 0.426692,0.0601 1.280077,0.17787 1.89641,0.26167 1.89071,0.25707 3.960543,0.67025 5.746697,1.14716 0.395085,0.10549 0.976939,0.25848 1.293007,0.33997 0.316068,0.0815 0.644465,0.19343 0.72977,0.24873 0.0853,0.0553 0.256396,0.1201 0.380203,0.14398 0.504377,0.0973 1.30478,0.0212 1.540505,-0.14655 0.103307,-0.0735 0.102357,-0.0742 -0.06602,-0.0448 -0.09396,0.0164 -0.468232,0.0302 -0.831711,0.0305 l -0.66087,7e-4 -0.669773,-0.28794 c -0.94056,-0.40436 -0.908426,-0.3423 -1.000401,-1.93212 -0.01766,-0.30526 -0.0429,-0.58978 -0.0561,-0.63228 -0.03458,-0.11138 -2.170762,-1.03768 -3.043486,-1.31972 -0.321761,-0.10399 -0.90868,-0.19338 -1.636301,-0.2492 -0.557525,-0.0428 -2.599481,-0.0413 -3.535726,0.003 z"
           id="path3186"
           inkscape:connector-curvature="0"
           sodipodi:nodetypes="csscscccsccsscccccccssccccc" />
        <path
           style="fill:url(#radialGradient4188);fill-opacity:1;stroke:#000000;stroke-width:0.40000001;stroke-miterlimit:4;stroke-opacity:1;stroke-dasharray:none"
           d="m -26.372849,907.68574 c 3.354908,0.1665 6.063439,0.61542 9.00351,1.49227 2.091658,0.62381 3.564811,1.35214 5.025346,2.48458 2.011762,1.55984 3.5212587,3.57992 3.9924967,5.34295 0.175953,0.65827 0.176623,1.55184 0.0019,2.47151 -0.07158,0.37668 -0.168574,0.89111 -0.215538,1.14315 -0.198799,1.06695 -0.566227,1.94877 -1.414527,3.39486 -0.6389227,1.08916 -0.7927247,1.49962 -0.7864877,2.09901 0.0075,0.72412 0.274001,1.20133 0.8321817,1.49038 0.321106,0.16626 0.382915,0.17695 1.034099,0.17865 0.682106,0.002 0.699053,0.005 1.120606,0.22265 1.046266,0.53979 1.663696,1.35921 1.879492,2.49436 0.118772,0.62477 0.04347,1.32252 -0.238145,2.20669 -0.270872,0.85042 -0.551372,1.45702 -1.396532,3.02006 -0.399955,0.73968 -0.811553,1.54671 -0.914661,1.7934 -0.766412,1.83364 -0.707081,3.35992 0.203797,5.24268 0.336889,0.69633 1.095288,2.03095 1.576678,2.77459 0.248075,0.38323 0.339273,0.61468 0.209434,0.53152 -0.03089,-0.0198 -0.179587,-0.2054 -0.330435,-0.41248 -0.363023,-0.49833 -0.792865,-0.86947 -1.360557,-1.17477 -1.8516717,-0.99581 -3.2693797,-1.96437 -4.0338377,-2.75586 -0.894028,-0.92566 -1.105463,-1.40936 -1.370658,-3.13566 -0.158137,-1.02941 -0.285797,-1.43682 -0.58262,-1.85934 -0.370847,-0.52788 -1.1895,-0.94303 -1.617891,-0.82046 -0.525501,0.15033 -0.954629,0.6043 -1.101321,1.16498 -0.300207,1.14741 0.425679,3.35236 1.622439,4.92827 0.614587,0.80931 1.241705,1.40021 2.718921,2.56188 1.770404,1.39223 2.431563,2.48247 2.362465,3.8957 -0.02322,0.47496 -0.05471,0.6081 -0.239481,1.01241 -0.193585,0.42364 -0.302145,0.55673 -1.205507,1.47798 -1.3195,1.34564 -1.671111,1.91952 -2.192523,3.57849 -0.349719,1.11269 -0.444811,1.73882 -0.446929,2.94274 -0.002,1.15515 0.07033,1.64759 0.490066,3.33507 0.688264,2.76704 0.709363,2.93659 0.69596,5.59249 -0.0059,1.15969 -0.04092,2.40544 -0.07792,2.76835 -0.12206,1.19698 -0.535486,2.69272 -1.261096,4.56253 -0.197022,0.5077 -0.45684,1.21789 -0.577372,1.5782 -0.120532,0.3603 -0.261078,0.7355 -0.312323,0.83376 l -0.09317,0.17866 0.03604,-0.23821 c 0.01982,-0.13102 0.08439,-0.39903 0.143477,-0.59555 0.285316,-0.94897 0.308862,-1.10934 0.310411,-2.1142 0.0012,-0.81069 -0.02159,-1.09044 -0.130528,-1.59866 -0.438027,-2.04353 -1.505772,-4.09745 -3.80061,-7.31087 -1.049474,-1.46956 -1.123722,-1.62348 -1.117457,-2.31651 0.006,-0.66006 0.07966,-0.87453 1.043538,-3.0373 0.379546,-0.85163 0.795254,-1.84561 0.923794,-2.20884 1.02197,-2.8879 1.250056,-5.55694 0.675472,-7.90431 -0.498024,-2.03459 -1.922048,-3.22679 -3.071889,-2.57179 -0.763763,0.43506 -1.124147,1.00086 -1.11889,1.75666 0.0037,0.53808 0.136797,1.02304 0.577332,2.10426 0.680034,1.66903 0.897881,2.48949 0.903971,3.40455 0.0041,0.61801 -0.006,0.67786 -0.179388,1.0571 -0.101062,0.22108 -0.206584,0.40198 -0.234493,0.40198 -0.02791,0 -0.138778,0.12731 -0.246375,0.28289 -0.277522,0.40131 -0.949435,1.18379 -2.109478,2.45663 -1.097692,1.20443 -1.386994,1.59784 -1.430419,1.94519 -0.01788,0.14293 0.03612,0.50722 0.144254,0.97299 0.09506,0.40943 0.20058,0.95407 0.2345,1.21029 0.08815,0.66584 0.07309,2.71964 -0.02737,3.73275 -0.04709,0.47494 -0.110363,1.11813 -0.140597,1.4293 -0.06569,0.67614 -0.208449,1.32092 -0.325475,1.47006 -0.07925,0.10108 -0.08283,0.0982 -0.05424,-0.0426 0.07052,-0.3475 0.148707,-1.25427 0.149147,-1.72968 8.33e-4,-0.90074 -0.431429,-2.27663 -1.243541,-3.95816 -0.71651,-1.4836 -0.739438,-1.6183 -0.518185,-3.04445 0.179908,-1.15963 0.200989,-2.04412 0.06203,-2.60232 -0.190703,-0.76603 -0.683213,-1.51542 -1.254045,-1.90806 -0.299928,-0.20631 -0.332185,-0.21473 -0.824124,-0.21473 -0.476328,0 -0.530696,0.0129 -0.780795,0.18453 -0.36166,0.24826 -0.637874,0.59434 -0.874653,1.09591 -0.402575,0.85275 -0.484841,1.53687 -0.486793,4.04815 -0.0016,2.10808 -0.05699,2.95005 -0.218593,3.32534 -0.11673,0.27107 -0.371356,0.52921 -1.244813,1.26193 -0.771145,0.64689 -2.04157,1.97018 -2.516979,2.62169 -0.662317,0.90765 -1.131363,2.02736 -1.133572,2.70607 -0.0012,0.36084 -0.08544,0.50501 -0.166325,0.28455 -0.10974,-0.29913 -0.227649,-0.84499 -0.382549,-1.77104 -0.231634,-1.38477 -0.159463,-2.2362 0.32179,-3.79623 0.347756,-1.12729 0.442159,-3.26864 0.20415,-4.63075 -0.139979,-0.8011 -0.4645,-1.96835 -0.757241,-2.72371 -0.321003,-0.82829 -1.040903,-2.28207 -1.281402,-2.58771 -0.362756,-0.46102 -1.291187,-1.90178 -1.366404,-2.12042 -0.09765,-0.28388 -0.07183,-0.39163 0.295509,-1.23336 0.603068,-1.3819 0.851416,-2.25601 0.950584,-3.34582 0.148925,-1.63658 -0.279791,-3.05302 -1.188735,-3.9275 -0.924925,-0.88985 -2.135177,-1.12455 -2.933632,-0.56893 -0.370355,0.25774 -0.57953,0.68844 -0.627416,1.29189 -0.05346,0.6737 0.115332,1.90046 0.380754,2.76725 0.321133,1.04873 0.364016,1.34223 0.332955,2.27885 -0.02364,0.71288 -0.05002,0.88903 -0.202962,1.35536 -0.200028,0.6099 -0.491967,1.28303 -0.443703,1.02304 0.14864,-0.80065 0.216533,-1.50991 0.220498,-2.30346 0.0086,-1.71318 -0.262262,-2.41203 -1.974982,-5.09637 -1.07941,-1.69177 -1.485252,-2.61718 -1.615106,-3.68279 -0.07717,-0.63327 0.0075,-1.19363 0.261786,-1.73224 0.24647,-0.52208 1.102665,-1.6119 2.449135,-3.11743 0.687736,-0.76898 1.030408,-1.1958 1.030408,-1.28342 0,-0.0723 -0.202864,-0.55874 -0.450809,-1.08118 -0.425435,-0.89641 -0.608903,-1.23001 -1.799817,-3.27251 -2.419901,-4.15032 -3.495812,-7.52533 -3.496022,-10.96664 -2.3e-4,-3.67019 1.252929,-6.65027 3.677684,-8.74576 0.915997,-0.79161 2.243673,-1.57172 3.591839,-2.11046 0.347675,-0.13891 0.722647,-0.29011 0.833271,-0.33595 0.27968,-0.11588 2.447054,-0.65436 3.074483,-0.76385 1.232365,-0.21505 2.940257,-0.36466 5.488095,-0.48071 2.140617,-0.0975 2.992271,-0.10333 4.45369,-0.0309 z"
           id="path3208"
           inkscape:connector-curvature="0" />
        <g
           id="g3278"
           transform="translate(-91.039998,-41.542523)">
          <path
             id="path3180"
             d="m 60.122748,950.64796 c -0.09234,0.0368 -0.331774,0.17056 -0.532077,0.29727 l -0.364186,0.23038 -0.296684,-0.024 c -0.616838,-0.0498 -2.934654,-0.0642 -3.342433,-0.0207 -1.203383,0.12834 -2.491003,0.56772 -3.472948,1.18509 -0.444755,0.27963 -0.526242,0.41073 -0.09691,0.15593 0.590996,-0.35076 1.536862,-0.7306 1.750143,-0.70284 0.06913,0.009 -0.03459,0.0967 -0.373452,0.31569 -0.521452,0.33701 -0.738494,0.57796 -0.823483,0.91418 -0.121172,0.47937 0.18167,1.0872 0.71906,1.44321 0.141635,0.0938 0.257518,0.1925 0.257518,0.21926 0,0.091 -1.370532,0.6242 -1.953877,0.76015 -0.299388,0.0698 -0.09938,0.0925 0.212281,0.0242 0.147361,-0.0323 0.31528,-0.0588 0.373153,-0.0588 0.141321,0 1.30514,-0.38859 1.770712,-0.59122 0.575622,-0.25053 1.804766,-0.8492 2.442346,-1.18957 1.4164,-0.75614 3.326211,-2.07591 3.728098,-2.5763 0.127925,-0.15928 0.253029,-0.15157 0.527161,0.0325 0.326181,0.219 0.985215,0.52731 1.426968,0.66757 0.209296,0.0665 0.380538,0.14052 0.380538,0.1646 0,0.0241 -0.169466,0.17453 -0.376591,0.33432 -0.704564,0.54356 -1.053837,0.93437 -1.565865,1.75208 -0.301568,0.4816 -0.556423,0.99346 -0.509643,1.02358 0.01492,0.01 0.106608,-0.11524 0.203753,-0.27743 0.493634,-0.82417 1.29965,-1.68923 2.283045,-2.45029 0.460367,-0.35628 0.562437,-0.46186 0.518232,-0.53603 -0.01682,-0.0282 -0.225926,-0.11101 -0.46467,-0.18396 -0.514087,-0.15707 -1.338013,-0.50553 -1.732097,-0.73255 -0.411736,-0.23718 -0.486981,-0.25646 -0.688087,-0.17634 z"
             style="fill:#680201"
             inkscape:connector-curvature="0" />
          <path
             id="path3032"
             d="m 66.132557,950.84183 c -0.555736,0.2938 -1.182643,0.55776 -1.700437,0.71597 -0.61704,0.18853 -0.615825,0.19739 0.103544,0.7546 0.883899,0.68464 1.755016,1.60909 2.17535,2.30852 0.132026,0.21968 0.250152,0.39292 0.262504,0.38497 0.04295,-0.0277 -0.267149,-0.65692 -0.50046,-1.01554 -0.56985,-0.87592 -0.908215,-1.25295 -1.605557,-1.78903 -0.18921,-0.14546 -0.344019,-0.28487 -0.344019,-0.30981 0,-0.0249 0.10968,-0.077 0.243733,-0.11573 0.398613,-0.11508 1.053949,-0.40573 1.450771,-0.64342 0.204275,-0.12236 0.404385,-0.22244 0.444691,-0.2224 0.04031,3e-5 0.148632,0.0769 0.240725,0.17071 1.237184,1.26083 4.969643,3.39437 7.200117,4.11571 0.399733,0.12927 0.927051,0.24323 1.338687,0.28929 0.07902,0.009 -0.08907,-0.061 -0.373535,-0.15527 -0.888484,-0.29435 -1.580342,-0.56848 -1.580342,-0.62616 0,-0.0149 0.144514,-0.12963 0.321141,-0.25493 0.198983,-0.14116 0.416445,-0.3545 0.571684,-0.56083 0.273018,-0.36289 0.355142,-0.54078 0.41709,-0.90351 0.04573,-0.26775 -0.0097,-0.2418 0.758896,-0.35518 0.490493,-0.0724 0.862005,-0.16 0.862005,-0.20336 0,-0.0162 -0.148696,-0.004 -0.330435,0.0264 -0.520373,0.088 -1.945952,0.0487 -2.665271,-0.0734 -0.861399,-0.14626 -2.095631,-0.47561 -3.383128,-0.90275 l -1.178073,-0.39085 -0.388968,0.0415 c -0.655782,0.07 -0.715405,0.0622 -1.012167,-0.13321 -0.394997,-0.26007 -0.640359,-0.38027 -0.776145,-0.38022 -0.06677,2e-5 -0.31535,0.10258 -0.552401,0.2279 z"
             style="fill:#680201"
             inkscape:connector-curvature="0" />
        </g>
        <g
           id="g3282"
           transform="translate(-91.671344,-41.795062)"
           style="fill:#030000;fill-opacity:1">
          <path
             style="fill:#030000;fill-opacity:1"
             d="m 60.122748,950.64796 c -0.09234,0.0368 -0.331774,0.17056 -0.532077,0.29727 l -0.364186,0.23038 -0.296684,-0.024 c -0.616838,-0.0498 -2.934654,-0.0642 -3.342433,-0.0207 -1.203383,0.12834 -2.491003,0.56772 -3.472948,1.18509 -0.444755,0.27963 -0.526242,0.41073 -0.09691,0.15593 0.590996,-0.35076 1.536862,-0.7306 1.750143,-0.70284 0.06913,0.009 -0.03459,0.0967 -0.373452,0.31569 -0.521452,0.33701 -0.738494,0.57796 -0.823483,0.91418 -0.121172,0.47937 0.18167,1.0872 0.71906,1.44321 0.141635,0.0938 0.257518,0.1925 0.257518,0.21926 0,0.091 -1.370532,0.6242 -1.953877,0.76015 -0.299388,0.0698 -0.09938,0.0925 0.212281,0.0242 0.147361,-0.0323 0.31528,-0.0588 0.373153,-0.0588 0.141321,0 1.30514,-0.38859 1.770712,-0.59122 0.575622,-0.25053 1.804766,-0.8492 2.442346,-1.18957 1.4164,-0.75614 3.326211,-2.07591 3.728098,-2.5763 0.127925,-0.15928 0.253029,-0.15157 0.527161,0.0325 0.326181,0.219 0.985215,0.52731 1.426968,0.66757 0.209296,0.0665 0.380538,0.14052 0.380538,0.1646 0,0.0241 -0.169466,0.17453 -0.376591,0.33432 -0.704564,0.54356 -1.053837,0.93437 -1.565865,1.75208 -0.301568,0.4816 -0.556423,0.99346 -0.509643,1.02358 0.01492,0.01 0.106608,-0.11524 0.203753,-0.27743 0.493634,-0.82417 1.29965,-1.68923 2.283045,-2.45029 0.460367,-0.35628 0.562437,-0.46186 0.518232,-0.53603 -0.01682,-0.0282 -0.225926,-0.11101 -0.46467,-0.18396 -0.514087,-0.15707 -1.338013,-0.50553 -1.732097,-0.73255 -0.411736,-0.23718 -0.486981,-0.25646 -0.688087,-0.17634 z"
             id="path3284"
             inkscape:connector-curvature="0" />
          <path
             style="fill:#030000;fill-opacity:1"
             d="m 66.132557,950.84183 c -0.555736,0.2938 -1.182643,0.55776 -1.700437,0.71597 -0.61704,0.18853 -0.615825,0.19739 0.103544,0.7546 0.883899,0.68464 1.755016,1.60909 2.17535,2.30852 0.132026,0.21968 0.250152,0.39292 0.262504,0.38497 0.04295,-0.0277 -0.267149,-0.65692 -0.50046,-1.01554 -0.56985,-0.87592 -0.908215,-1.25295 -1.605557,-1.78903 -0.18921,-0.14546 -0.344019,-0.28487 -0.344019,-0.30981 0,-0.0249 0.10968,-0.077 0.243733,-0.11573 0.398613,-0.11508 1.053949,-0.40573 1.450771,-0.64342 0.204275,-0.12236 0.404385,-0.22244 0.444691,-0.2224 0.04031,3e-5 0.148632,0.0769 0.240725,0.17071 1.237184,1.26083 4.969643,3.39437 7.200117,4.11571 0.399733,0.12927 0.927051,0.24323 1.338687,0.28929 0.07902,0.009 -0.08907,-0.061 -0.373535,-0.15527 -0.888484,-0.29435 -1.580342,-0.56848 -1.580342,-0.62616 0,-0.0149 0.144514,-0.12963 0.321141,-0.25493 0.198983,-0.14116 0.416445,-0.3545 0.571684,-0.56083 0.273018,-0.36289 0.355142,-0.54078 0.41709,-0.90351 0.04573,-0.26775 -0.0097,-0.2418 0.758896,-0.35518 0.490493,-0.0724 0.862005,-0.16 0.862005,-0.20336 0,-0.0162 -0.148696,-0.004 -0.330435,0.0264 -0.520373,0.088 -1.945952,0.0487 -2.665271,-0.0734 -0.861399,-0.14626 -2.095631,-0.47561 -3.383128,-0.90275 l -1.178073,-0.39085 -0.388968,0.0415 c -0.655782,0.07 -0.715405,0.0622 -1.012167,-0.13321 -0.394997,-0.26007 -0.640359,-0.38027 -0.776145,-0.38022 -0.06677,2e-5 -0.31535,0.10258 -0.552401,0.2279 z"
             id="path3286"
             inkscape:connector-curvature="0" />
        </g>
        <path
           style="fill:#f13916;fill-opacity:1;stroke:none"
           d="m -43.25,912.25 c -0.291236,0.97551 -0.889722,1.81766 -1.53125,2.59375 -0.703577,0.91687 -1.251248,1.99519 -1.375,3.15625 -0.293565,1.49238 -0.383706,3.01317 -0.40625,4.53125 0.04896,1.35392 0.871243,2.4849 1.439806,3.66256 0.557313,1.13781 1.194839,2.23852 1.977527,3.2372 0.564426,0.79486 1.060586,1.65959 1.332667,2.60024 0.0386,0.0523 0.275652,0.63385 0.179559,0.16112 -0.02358,-0.98589 0.03744,-2.01881 -0.493555,-2.8972 -0.458197,-0.97617 -0.777663,-2.01605 -1.051181,-3.05727 -0.492858,-2.08972 -0.985715,-4.17943 -1.478573,-6.26915 -0.09169,-1.08554 -0.413588,-2.17748 -0.252393,-3.26689 0.196342,-0.9484 0.810061,-1.72583 1.377393,-2.48311 0.358974,-0.65251 0.292585,-1.409 0.34375,-2.125 L -43.25,912.25 z"
           id="path4066"
           inkscape:connector-curvature="0" />
        <path
           style="fill:#e4300e;fill-opacity:1;stroke:none"
           d="m -40.53125,5.09375 c -0.564537,0.8462931 -1.819894,0.3961322 -2.46875,1.125 -0.659732,0.7739134 -1.298935,1.6310732 -1.498803,2.6490697 -0.05764,0.6763622 0.444396,1.2648713 1.061303,1.4759303 0.458413,0.168844 1.053376,0.02462 1.175504,-0.5072576 0.459112,-0.9770854 0.647891,-2.0530936 1.043246,-3.0552424 0.322927,-0.5765272 0.641085,-1.1718706 0.8125,-1.8125 l -0.125,0.125 z"
           id="path4068"
           inkscape:connector-curvature="0"
           transform="translate(0,932.36218)" />
        <path
           style="fill:#e4300e;fill-opacity:1;stroke:none"
           d="m -36.625,942.875 c 0.326137,1.31674 0.713199,2.66094 0.5625,4.03125 0.05798,1.37249 -0.285114,2.71533 -0.588674,4.0422 -0.170016,0.40247 -0.216484,1.39897 0.485878,1.10564 0.921307,-0.30394 1.514801,-1.18166 2.34204,-1.6668 0.774494,-0.61963 1.985954,-1.11695 2.010756,-2.26229 0.05059,-1.00937 -0.643532,-1.85942 -1.25,-2.59375 -0.696555,-0.68572 -0.944854,-1.63883 -1.469053,-2.43801 -0.467674,-0.90474 -1.555898,-1.00208 -2.437197,-1.21824 0.114583,0.33333 0.229167,0.66667 0.34375,1 z"
           id="path4070"
           inkscape:connector-curvature="0" />
        <path
           style="fill:#e4300e;fill-opacity:1;stroke:none"
           d="m -35.3125,955.75 c 0.200226,0.84877 0.307793,1.72472 0.65625,2.53125 0.476358,0.57843 1.230434,1.13553 1.011062,1.99419 -0.01827,0.23686 -0.224651,0.49223 0.08269,0.63081 0.548411,0.44101 0.704319,1.32713 0.107704,1.80146 -0.611514,0.82061 -1.38071,1.69805 -1.388954,2.76104 0.975578,-0.10987 1.873795,-0.62525 2.53125,-1.34375 0.527227,-0.67613 0.687934,-1.56442 0.565953,-2.39943 -0.220099,-0.96975 -0.454434,-1.94263 -0.765938,-2.88802 -0.38266,-0.93456 -0.764763,-1.86999 -1.143765,-2.8063 -0.576382,0.0768 -1.088757,-0.40204 -1.65625,-0.28125 z"
           id="path4070-1"
           inkscape:connector-curvature="0" />
        <path
           style="fill:#e4300e;fill-opacity:1;stroke:none"
           d="m -13.15625,927.84375 c -0.201709,0.0163 0.163882,0.20148 0.125,0.3125 0.519509,0.95914 1.144259,1.85511 1.71875,2.78125 0.319654,0.79072 0.227063,1.72021 -0.150038,2.47299 -0.360072,0.74154 -0.834381,1.47628 -0.849075,2.32886 -0.09187,0.91893 0.222736,1.81966 0.311613,2.7294 0.149932,0.87089 0.146644,2.14641 1.239849,2.35684 0.442286,0.11961 0.9369026,-0.20322 0.8392016,-0.69515 0.059803,-0.95514 -0.045705,-1.92946 0.147283,-2.87157 0.1669347,-0.97177 0.5104619,-1.90088 0.9867645,-2.7628 0.4743562,-0.88231 1.0586226,-1.82402 0.8494019,-2.87107 -0.2264647,-0.87337 -1.0111995,-1.38566 -1.65625,-1.9375 -0.835587,-0.60628 -1.713722,-1.14902 -2.59375,-1.6875 -0.308863,-0.0982 -0.639861,-0.25826 -0.96875,-0.15625 z"
           id="path4070-7"
           inkscape:connector-curvature="0" />
        <path
           sodipodi:type="arc"
           style="fill:#ffffff;fill-opacity:1;stroke:none"
           id="path4116"
           sodipodi:cx="-53.88393"
           sodipodi:cy="-34.285713"
           sodipodi:rx="0.84821427"
           sodipodi:ry="0.98214287"
           d="m -53.035716,-34.285713 c 0,0.542422 -0.379758,0.982143 -0.848214,0.982143 -0.468456,0 -0.848214,-0.439721 -0.848214,-0.982143 0,-0.542423 0.379758,-0.982143 0.848214,-0.982143 0.468456,0 0.848214,0.43972 0.848214,0.982143 z"
           transform="matrix(1,0,0,0.63636364,18.482143,931.85894)" />
        <path
           sodipodi:type="arc"
           style="fill:#ffffff;fill-opacity:1;stroke:none"
           id="path4116-4"
           sodipodi:cx="-53.88393"
           sodipodi:cy="-34.285713"
           sodipodi:rx="0.84821427"
           sodipodi:ry="0.98214287"
           d="m -53.035716,-34.285713 c 0,0.542422 -0.379758,0.982143 -0.848214,0.982143 -0.468456,0 -0.848214,-0.439721 -0.848214,-0.982143 0,-0.542423 0.379758,-0.982143 0.848214,-0.982143 0.468456,0 0.848214,0.43972 0.848214,0.982143 z"
           transform="matrix(1,0,0,0.63636364,33.348216,932.39465)" />
      </g>
    </g>
  </g>
</svg>
